<svg aria-hidden="true" style="width:0;height:0;position:absolute;overflow:hidden" xmlns="http://www.w3.org/2000/svg"><defs><symbol id="icon-bg-heart" viewBox="0 0 32 32"><path d="M9.334 4c-3.682 0-6.668 2.954-6.668 6.6 0 2.942 1.168 9.926 12.652 16.986a1.31 1.31 0 0 0 1.37-.003l-.006.003c11.484-7.06 12.652-14.044 12.652-16.986 0-3.646-2.986-6.6-6.668-6.6C18.986 4 16 8 16 8s-2.986-4-6.666-4z"/></symbol><symbol id="icon-calendar" viewBox="0 0 32 32"><path d="M21.129 3.077h4.102c.566 0 1.025.459 1.025 1.025v16.411c0 .566-.459 1.025-1.025 1.025H6.769a1.025 1.025 0 0 1-1.025-1.025V4.102c0-.566.459-1.025 1.025-1.025h4.102V1.025h2.052v2.052h6.154V1.025h2.052v2.052zm3.077 8.205H7.795v8.204h16.411v-8.204zm-5.129-6.153h-6.154v2.05h-2.052v-2.05H7.794v4.102h16.411V5.129h-3.077v2.05h-2.052v-2.05zm-9.231 8.204h2.052v2.052H9.846v-2.052zm5.129 0h2.05v2.052h-2.05v-2.052zm5.127 0h2.052v2.052h-2.052v-2.052z"/></symbol><symbol id="icon-down-arrow" viewBox="0 0 35 32"><path d="M9.032 6.4 6.4 8.835 17.6 19.2 28.8 8.835 26.168 6.4 17.6 14.312 9.032 6.4z"/></symbol><symbol id="icon-mobil-book" viewBox="0 0 32 32"><path stroke-linejoin="round" stroke-linecap="round" stroke-width="1.778" d="M2.667 4h8A5.333 5.333 0 0 1 16 9.333V28a4 4 0 0 0-4-4H2.667V4zm26.666 0h-8A5.333 5.333 0 0 0 16 9.333V28a4 4 0 0 1 4-4h9.333V4z"/></symbol><symbol id="icon-mobil-heart" viewBox="0 0 32 32"><path stroke-linejoin="round" stroke-linecap="round" stroke-width="1.778" d="M27.787 6.146C26.46 4.818 24.626 3.997 22.6 3.997s-3.859.821-5.187 2.149L16 7.559l-1.413-1.413A7.335 7.335 0 0 0 4.214 16.52L16 28.306l11.787-11.787c1.328-1.327 2.149-3.161 2.149-5.187s-.821-3.859-2.149-5.187z"/></symbol><symbol id="icon-mobil-home" viewBox="0 0 32 32"><path stroke-linejoin="round" stroke-linecap="round" stroke-width="1.778" d="m4 12 12-9.333L28 12v14.667a2.667 2.667 0 0 1-2.667 2.667H6.666a2.667 2.667 0 0 1-2.667-2.667V12z"/><path stroke-linejoin="round" stroke-linecap="round" stroke-width="1.778" d="M12 29.333V16h8v13.333"/></symbol><symbol id="icon-moon" viewBox="0 0 32 32"><path stroke-linejoin="round" stroke-linecap="round" stroke-width="2.286" d="M28 17.053c-.584 6.134-5.71 10.893-11.947 10.893-6.627 0-11.998-5.372-11.998-11.998 0-6.237 4.759-11.363 10.845-11.944L14.948 4a9.264 9.264 0 0 0-1.827 5.546 9.333 9.333 0 0 0 14.904 7.489l-.025.018z"/></symbol><symbol id="icon-no-bg-heart" viewBox="0 0 32 32"><path stroke-linejoin="round" stroke-linecap="round" stroke-width="2" d="M9.334 4c-3.682 0-6.668 2.954-6.668 6.6 0 2.942 1.168 9.926 12.652 16.986a1.31 1.31 0 0 0 1.37-.003l-.006.003c11.484-7.06 12.652-14.044 12.652-16.986 0-3.646-2.986-6.6-6.668-6.6C18.986 4 16 8 16 8s-2.986-4-6.666-4z"/></symbol><symbol id="icon-search" viewBox="0 0 34 32"><path d="M14.035 24c2.493 0 4.911-.792 6.873-2.25l6.171 5.861 1.984-1.886-6.171-5.861a10.21 10.21 0 0 0 2.371-6.528v-.002c0-5.881-5.036-10.668-11.229-10.668-6.191 0-11.227 4.787-11.227 10.668S7.843 24 14.034 24zm0-18.666c4.645 0 8.421 3.587 8.421 8s-3.776 8-8.421 8c-4.643 0-8.421-3.587-8.421-8s3.778-8 8.421-8z"/></symbol><symbol id="icon-sun" viewBox="0 0 32 32"><path stroke-linejoin="round" stroke-linecap="round" stroke-width="2.286" d="M16 1.778v2.586m0 23.272v2.586M5.943 5.943l1.836 1.836m16.445 16.445 1.836 1.836M1.778 16h2.586m23.272 0h2.586M5.943 26.059l1.836-1.836M24.222 7.778l1.836-1.836M22.466 16a6.465 6.465 0 0 1-12.93 0 6.465 6.465 0 0 1 12.93 0z"/></symbol><symbol id="icon-toggle-dark" viewBox="0 0 64 32"><path d="M16 .8h32C56.395.8 63.2 7.605 63.2 16S56.395 31.2 48 31.2H16C7.605 31.2.8 24.395.8 16S7.605.8 16 .8z"/><path d="M60.8 16c0 7.069-5.731 12.8-12.8 12.8S35.2 23.069 35.2 16c0-7.069 5.731-12.8 12.8-12.8S60.8 8.931 60.8 16z"/><path stroke-width="1.6" d="M16 .8h32C56.395.8 63.2 7.605 63.2 16S56.395 31.2 48 31.2H16C7.605 31.2.8 24.395.8 16S7.605.8 16 .8z"/></symbol><symbol id="icon-toggle-light" viewBox="0 0 61 32"><path d="M15.238 1.222h30.475c8.162 0 14.778 6.616 14.778 14.778v-.002c0 8.162-6.616 14.778-14.778 14.778H15.238C7.076 30.776.46 24.16.46 15.998V16c0-8.162 6.616-14.778 14.778-14.778z"/><path d="M25.905 16c0 6.733-5.458 12.19-12.19 12.19S1.525 22.732 1.525 16c0-6.733 5.458-12.19 12.19-12.19S25.905 9.268 25.905 16z"/><path stroke-width=".922" d="M15.238 1.222h30.475c8.162 0 14.778 6.616 14.778 14.778v-.002c0 8.162-6.616 14.778-14.778 14.778H15.238C7.076 30.776.46 24.16.46 15.998V16c0-8.162 6.616-14.778 14.778-14.778z"/></symbol><symbol id="icon-up-arrow" viewBox="0 0 32 32"><path d="M3.76 25.143 0 21.664 16 6.857l16 14.807-3.76 3.479L16 13.84 3.76 25.143z"/></symbol><symbol id="icon-left-arrow" viewBox="0 0 32 32"><path d="m14.437 16 6.6 6.6-1.885 1.885L10.667 16l8.485-8.485L21.037 9.4l-6.6 6.6z"/></symbol><symbol id="icon-right-arrow" viewBox="0 0 32 32"><path d="m16.229 16-3.772-3.771 1.885-1.887 5.657 5.657-5.657 5.657-1.885-1.887 3.772-3.771z"/></symbol><symbol id="icon-menu-1" viewBox="0 0 32 32"><path stroke-linejoin="round" stroke-linecap="round" stroke-width="2.667" d="M4 16h24M4 8h24M4 24h24"/></symbol><symbol id="icon-x" viewBox="0 0 32 32"><path stroke-linejoin="round" stroke-linecap="round" stroke-width="2.667" d="M24 8 8 24M8 8l16 16"/></symbol><symbol id="icon-instagram" viewBox="0 0 32 32"><path d="M31.969 9.408c-.075-1.7-.35-2.869-.744-3.882a7.806 7.806 0 0 0-1.851-2.838A7.867 7.867 0 0 0 26.542.844C25.523.45 24.36.175 22.66.1 20.947.019 20.403 0 16.059 0s-4.888.019-6.595.094c-1.7.075-2.869.35-3.882.744a7.803 7.803 0 0 0-2.838 1.85A7.867 7.867 0 0 0 .9 5.52C.506 6.539.231 7.702.156 9.402c-.081 1.713-.1 2.257-.1 6.601s.019 4.888.094 6.595c.075 1.7.35 2.869.744 3.882a7.895 7.895 0 0 0 1.85 2.838 7.867 7.867 0 0 0 2.832 1.844c1.019.394 2.182.669 3.882.744 1.706.075 2.25.094 6.595.094s4.888-.019 6.595-.094c1.7-.075 2.869-.35 3.882-.744a8.184 8.184 0 0 0 4.682-4.682c.394-1.019.669-2.182.744-3.882.075-1.707.094-2.251.094-6.595s-.006-4.888-.081-6.595zm-2.882 13.065c-.069 1.563-.331 2.407-.55 2.969a5.31 5.31 0 0 1-3.038 3.038c-.563.219-1.413.481-2.969.55-1.688.075-2.194.094-6.464.094s-4.782-.019-6.464-.094c-1.563-.069-2.407-.331-2.969-.55a4.926 4.926 0 0 1-1.838-1.194 4.974 4.974 0 0 1-1.194-1.838c-.219-.563-.481-1.413-.55-2.969-.075-1.688-.094-2.194-.094-6.464s.019-4.782.094-6.464c.069-1.563.331-2.407.55-2.969a4.868 4.868 0 0 1 1.2-1.838A4.974 4.974 0 0 1 6.639 3.55c.563-.219 1.413-.481 2.969-.55 1.688-.075 2.194-.094 6.464-.094 4.276 0 4.782.019 6.464.094 1.563.069 2.407.331 2.969.55a4.914 4.914 0 0 1 1.838 1.194 4.974 4.974 0 0 1 1.194 1.838c.219.563.481 1.413.55 2.969.075 1.688.094 2.194.094 6.464s-.019 4.77-.094 6.458z"/><path d="M16.059 7.783c-4.538 0-8.22 3.682-8.22 8.22s3.682 8.22 8.22 8.22c4.539 0 8.22-3.682 8.22-8.22s-3.682-8.22-8.22-8.22zm0 13.552a5.333 5.333 0 0 1 0-10.664 5.333 5.333 0 0 1 0 10.664zM26.524 7.458a1.919 1.919 0 1 1-3.838 0 1.919 1.919 0 0 1 3.838 0z"/></symbol><symbol id="icon-facebook" viewBox="0 0 32 32"><path d="M21.329 5.313h2.921V.225C23.746.156 22.013 0 19.994 0c-4.212 0-7.097 2.649-7.097 7.519V12H8.249v5.688h4.648V32h5.699V17.689h4.46l.708-5.688h-5.169V8.082c.001-1.644.444-2.769 2.735-2.769z"/></symbol><symbol id="icon-linkedin" viewBox="0 0 32 32"><path d="M31.992 32v-.001H32V20.263c0-5.741-1.236-10.164-7.948-10.164-3.227 0-5.392 1.771-6.276 3.449h-.093v-2.913h-6.364v21.364h6.627V21.42c0-2.785.528-5.479 3.977-5.479 3.399 0 3.449 3.179 3.449 5.657v10.401h6.62zM.528 10.636h6.635V32H.528V10.636zM3.843 0C1.722 0 0 1.721 0 3.843s1.721 3.879 3.843 3.879c2.121 0 3.843-1.757 3.843-3.879A3.846 3.846 0 0 0 3.843 0z"/></symbol><symbol id="icon-twitter" viewBox="0 0 32 32"><path d="M32 6.078c-1.19.522-2.458.868-3.78 1.036a6.523 6.523 0 0 0 2.886-3.626 13.11 13.11 0 0 1-4.16 1.588A6.574 6.574 0 0 0 22.154 3c-3.632 0-6.556 2.948-6.556 6.562 0 .52.044 1.02.152 1.496-5.454-.266-10.28-2.88-13.522-6.862a6.605 6.605 0 0 0-.898 3.316 6.57 6.57 0 0 0 2.914 5.452 6.479 6.479 0 0 1-2.964-.808v.072c0 3.188 2.274 5.836 5.256 6.446a6.548 6.548 0 0 1-1.72.216 5.8 5.8 0 0 1-1.242-.112c.85 2.598 3.262 4.508 6.13 4.57a13.182 13.182 0 0 1-8.134 2.798c-.538 0-1.054-.024-1.57-.09A18.469 18.469 0 0 0 10.064 29c12.072 0 18.672-10 18.672-18.668 0-.29-.01-.57-.024-.848A13.087 13.087 0 0 0 32 6.078z"/></symbol></defs></svg>