<svg aria-hidden="true" style="position: absolute; width: 0; height: 0; overflow: hidden;" version="1.1" xmlns="http://www.w3.org/2000/svg" xmlns:xlink="http://www.w3.org/1999/xlink">
<defs>
<symbol id="icon-bg-heart" viewBox="0 0 32 32">
<path d="M9.334 4c-3.682 0-6.668 2.954-6.668 6.6 0 2.942 1.168 9.926 12.652 16.986 0.194 0.12 0.43 0.191 0.682 0.191s0.488-0.071 0.688-0.194l-0.006 0.003c11.484-7.060 12.652-14.044 12.652-16.986 0-3.646-2.986-6.6-6.668-6.6-3.68 0-6.666 4-6.666 4s-2.986-4-6.666-4z"></path>
</symbol>
<symbol id="icon-calendar" viewBox="0 0 32 32">
<path d="M21.129 3.077h4.102c0.566 0 1.025 0.459 1.025 1.025v0 16.411c0 0.566-0.459 1.025-1.025 1.025v0h-18.462c-0.566 0-1.025-0.459-1.025-1.025v0-16.411c0-0.566 0.459-1.025 1.025-1.025v0h4.102v-2.052h2.052v2.052h6.154v-2.052h2.052v2.052zM24.206 11.282h-16.411v8.204h16.411v-8.204zM19.077 5.129h-6.154v2.050h-2.052v-2.050h-3.077v4.102h16.411v-4.102h-3.077v2.050h-2.052v-2.050zM9.846 13.333h2.052v2.052h-2.052v-2.052zM14.975 13.333h2.050v2.052h-2.050v-2.052zM20.102 13.333h2.052v2.052h-2.052v-2.052z"></path>
</symbol>
<symbol id="icon-down-arrow" viewBox="0 0 35 32">
<path d="M9.032 6.4l-2.632 2.435 11.2 10.365 11.2-10.365-2.632-2.435-8.568 7.912-8.568-7.912z"></path>
</symbol>
<symbol id="icon-mobil-book" viewBox="0 0 32 32">
<path stroke-linejoin="round" stroke-linecap="round" stroke-miterlimit="4" stroke-width="1.7778" d="M2.667 4h8c2.946 0 5.333 2.388 5.333 5.333v0 18.667c0-2.209-1.791-4-4-4v0h-9.333v-20zM29.333 4h-8c-2.946 0-5.333 2.388-5.333 5.333v0 18.667c0-2.209 1.791-4 4-4v0h9.333v-20z"></path>
</symbol>
<symbol id="icon-mobil-heart" viewBox="0 0 32 32">
<path stroke-linejoin="round" stroke-linecap="round" stroke-miterlimit="4" stroke-width="1.7778" d="M27.787 6.146c-1.327-1.328-3.161-2.149-5.187-2.149s-3.859 0.821-5.187 2.149l-1.413 1.413-1.413-1.413c-1.325-1.315-3.151-2.128-5.166-2.128-4.051 0-7.335 3.284-7.335 7.335 0 2.015 0.813 3.841 2.128 5.167l11.786 11.786 11.787-11.787c1.328-1.327 2.149-3.161 2.149-5.187s-0.821-3.859-2.149-5.187l-0-0z"></path>
</symbol>
<symbol id="icon-mobil-home" viewBox="0 0 32 32">
<path stroke-linejoin="round" stroke-linecap="round" stroke-miterlimit="4" stroke-width="1.7778" d="M4 12l12-9.333 12 9.333v14.667c0 1.473-1.194 2.667-2.667 2.667v0h-18.667c-1.473 0-2.667-1.194-2.667-2.667v0-14.667z"></path>
<path stroke-linejoin="round" stroke-linecap="round" stroke-miterlimit="4" stroke-width="1.7778" d="M12 29.333v-13.333h8v13.333"></path>
</symbol>
<symbol id="icon-moon" viewBox="0 0 32 32">
<path stroke-linejoin="round" stroke-linecap="round" stroke-miterlimit="4" stroke-width="2.2857" d="M28 17.053c-0.584 6.134-5.71 10.893-11.947 10.893-6.627 0-11.998-5.372-11.998-11.998 0-6.237 4.759-11.363 10.845-11.944l0.048-0.004c-1.141 1.53-1.827 3.458-1.827 5.546 0 5.155 4.179 9.333 9.333 9.333 2.088 0 4.016-0.686 5.571-1.844l-0.025 0.018z"></path>
</symbol>
<symbol id="icon-no-bg-heart" viewBox="0 0 32 32">
<path stroke-linejoin="round" stroke-linecap="round" stroke-miterlimit="4" stroke-width="2" d="M9.334 4c-3.682 0-6.668 2.954-6.668 6.6 0 2.942 1.168 9.926 12.652 16.986 0.194 0.12 0.43 0.191 0.682 0.191s0.488-0.071 0.688-0.194l-0.006 0.003c11.484-7.060 12.652-14.044 12.652-16.986 0-3.646-2.986-6.6-6.668-6.6-3.68 0-6.666 4-6.666 4s-2.986-4-6.666-4z"></path>
</symbol>
<symbol id="icon-search" viewBox="0 0 34 32">
<path d="M14.035 24c2.493 0 4.911-0.792 6.873-2.25l6.171 5.861 1.984-1.886-6.171-5.861c1.468-1.757 2.363-4.038 2.371-6.528v-0.002c0-5.881-5.036-10.668-11.229-10.668-6.191 0-11.227 4.787-11.227 10.668s5.036 10.666 11.227 10.666zM14.035 5.334c4.645 0 8.421 3.587 8.421 8s-3.776 8-8.421 8c-4.643 0-8.421-3.587-8.421-8s3.778-8 8.421-8z"></path>
</symbol>
<symbol id="icon-sun" viewBox="0 0 32 32">
<path stroke-linejoin="round" stroke-linecap="round" stroke-miterlimit="4" stroke-width="2.2857" d="M16 1.778v2.586M16 27.636v2.586M5.943 5.943l1.836 1.836M24.224 24.224l1.836 1.836M1.778 16h2.586M27.636 16h2.586M5.943 26.059l1.836-1.836M24.222 7.778l1.836-1.836M22.466 16c0 3.57-2.894 6.465-6.465 6.465s-6.465-2.894-6.465-6.465v0c0-3.57 2.894-6.465 6.465-6.465s6.465 2.894 6.465 6.465v0z"></path>
</symbol>
<symbol id="icon-toggle-dark" viewBox="0 0 64 32">
<path fill="#4440f7" style="fill: var(--color1, #4440f7)" d="M16 0.8h32c8.395 0 15.2 6.805 15.2 15.2s-6.805 15.2-15.2 15.2h-32c-8.395 0-15.2-6.805-15.2-15.2s6.805-15.2 15.2-15.2z"></path>
<path fill="#fff" style="fill: var(--color2, #fff)" d="M60.8 16c0 7.069-5.731 12.8-12.8 12.8s-12.8-5.731-12.8-12.8c0-7.069 5.731-12.8 12.8-12.8s12.8 5.731 12.8 12.8z"></path>
<path fill="none" stroke="#fff" style="stroke: var(--color2, #fff)" stroke-linejoin="miter" stroke-linecap="butt" stroke-miterlimit="4" stroke-width="1.6" d="M16 0.8h32c8.395 0 15.2 6.805 15.2 15.2s-6.805 15.2-15.2 15.2h-32c-8.395 0-15.2-6.805-15.2-15.2s6.805-15.2 15.2-15.2z"></path>
</symbol>
<symbol id="icon-toggle-light" viewBox="0 0 61 32">
<path fill="#fff" style="fill: var(--color2, #fff)" d="M15.238 1.222h30.475c8.162 0 14.778 6.616 14.778 14.778v-0.002c0 8.162-6.616 14.778-14.778 14.778h-30.475c-8.162 0-14.778-6.616-14.778-14.778v0.002c0-8.162 6.616-14.778 14.778-14.778z"></path>
<path fill="#4b48db" style="fill: var(--color3, #4b48db)" d="M25.905 16c0 6.733-5.458 12.19-12.19 12.19s-12.19-5.458-12.19-12.19c0-6.733 5.458-12.19 12.19-12.19s12.19 5.458 12.19 12.19z"></path>
<path fill="none" stroke="#4b48db" style="stroke: var(--color3, #4b48db)" stroke-linejoin="miter" stroke-linecap="butt" stroke-miterlimit="4" stroke-width="0.9219" d="M15.238 1.222h30.475c8.162 0 14.778 6.616 14.778 14.778v-0.002c0 8.162-6.616 14.778-14.778 14.778h-30.475c-8.162 0-14.778-6.616-14.778-14.778v0.002c0-8.162 6.616-14.778 14.778-14.778z"></path>
</symbol>
<symbol id="icon-up-arrow" viewBox="0 0 32 32">
<path d="M3.76 25.143l-3.76-3.479 16-14.807 16 14.807-3.76 3.479-12.24-11.303-12.24 11.303z"></path>
</symbol>
</defs>
</svg>
